Coordinates
version=1
nRows=17
nColumns=24
inDegrees=yes

Units are S.I. units (second, meters, Newtons, ...)
Angles are in degrees.

endheader
time	pelvis_tilt	pelvis_list	pelvis_rotation	pelvis_tx	pelvis_ty	pelvis_tz	hip_flexion_r	hip_adduction_r	hip_rotation_r	knee_angle_r	ankle_angle_r	subtalar_angle_r	mtp_angle_r	hip_flexion_l	hip_adduction_l	hip_rotation_l	knee_angle_l	ankle_angle_l	subtalar_angle_l	mtp_angle_l	lumbar_extension	lumbar_bending	lumbar_rotation
      0.44800000	     -1.61837064	     -1.39231724	      4.91867361	     -0.76095430	      0.89310407	      0.29954415	     29.35803879	      3.56243745	     -6.95998269	    -17.98253085	      2.63738986	      0.51853322	      0.59688726	    -14.42752354	      0.30053410	     -0.02092398	    -10.41804433	     19.02946086	      2.52754296	      1.25351644	     -9.91977641	     -0.01919998	     -7.72958899
      0.45216667	     -1.63479295	     -1.42672708	      4.95977508	     -0.75483627	      0.89197553	      0.29968464	     29.23954860	      3.74977501	     -6.65026613	    -17.68019130	      2.53602279	      0.05257742	      1.19713171	    -14.36856815	      0.16385177	     -0.27898273	    -11.40622149	     19.23396664	      3.07871292	      2.36101671	     -9.86039001	      0.07895118	     -7.62705913
      0.45633333	     -1.72837250	     -1.42384488	      5.04607782	     -0.74872758	      0.89081174	      0.29969857	     29.23421286	      3.83644074	     -6.50887015	    -17.54931864	      2.40735432	     -0.16780554	      3.01293547	    -14.20877075	      0.08415254	     -0.28633667	    -12.40359799	     19.25038363	      3.24259399	      6.60649540	     -9.68813853	      0.11774209	     -7.55191252
      0.46050000	     -1.76247434	     -1.43399531	      5.11266204	     -0.74260453	      0.88980166	      0.29978438	     29.14911225	      3.96888562	     -6.27907680	    -17.47236274	      2.15766926	     -0.63847467	      2.98908437	    -14.11340238	     -0.00403836	     -0.21858836	    -13.41127597	     19.26968762	      3.30170443	      6.69610800	     -9.60444661	      0.16717793	     -7.58744932
      0.46466667	     -1.81327380	     -1.46515653	      5.16976477	     -0.73644913	      0.88878262	      0.29989206	     29.10213093	      4.11974077	     -6.06476771	    -17.52742580	      1.94304994	     -1.11087303	      2.97730586	    -13.93227117	     -0.13219159	     -0.30856264	    -14.56283958	     19.31131507	      3.62202334	      6.85818874	     -9.49954997	      0.24709714	     -7.54033830
      0.46883333	     -1.85972667	     -1.50165592	      5.21951158	     -0.73028063	      0.88780778	      0.30002841	     29.06734603	      4.27555747	     -5.86418995	    -17.70081555	      1.71803070	     -1.59820376	      2.97783961	    -13.71458889	     -0.27298381	     -0.42099313	    -15.79389977	     19.30920814	      3.95289797	      7.08028157	     -9.38707660	      0.33990841	     -7.47006015
      0.47300000	     -1.89447107	     -1.55212784	      5.25441415	     -0.72408911	      0.88688557	      0.30020865	     29.03929468	      4.45196668	     -5.66283170	    -17.98889136	      1.47747874	     -2.13620590	      2.99454447	    -13.47314347	     -0.43830893	     -0.58392286	    -17.09488622	     19.25020930	      4.34639906	      7.44011950	     -9.29401004	      0.45928313	     -7.38291201
      0.47716667	     -1.93510261	     -1.60027279	      5.30266573	     -0.71789898	      0.88600667	      0.30035335	     29.03444151	      4.60670496	     -5.51843880	    -18.38365313	      1.29652388	     -2.59863839	      3.32095771	    -13.17838640	     -0.60251264	     -0.69641296	    -18.47264497	     19.08050681	      4.62786652	     11.72872871	     -9.20195927	      0.58061311	     -7.25520459
      0.48133333	     -2.01304713	     -1.62793697	      5.34272279	     -0.71172530	      0.88513391	      0.30051328	     29.09652607	      4.73871295	     -5.34546336	    -18.89814768	      1.11336886	     -3.11143330	      3.31653711	    -12.82844414	     -0.72118548	     -0.67613037	    -19.87607343	     18.84506717	      4.72959456	     11.77640681	     -9.04558025	      0.68102055	     -7.15012523
      0.48550000	     -2.04140126	     -1.69412565	      5.33683508	     -0.70551319	      0.88434756	      0.30080496	     29.10451606	      4.94228281	     -5.13095655	    -19.44742066	      0.86319072	     -3.68456807	      3.32112665	    -12.46477834	     -0.92410272	     -0.93359508	    -21.41428872	     18.61847047	      5.18643215	     11.98920437	     -8.95701975	      0.79654741	     -7.00683900
      0.48966667	     -2.07400325	     -1.76598766	      5.35688691	     -0.69930965	      0.88361813	      0.30106422	     29.12583662	      5.13356614	     -4.95023753	    -20.06721287	      0.74279541	     -4.21728905	      3.34138512	    -12.04953123	     -1.13500822	     -1.09700891	    -23.02442286	     18.28400685	      5.55970429	     12.44474351	     -8.85742804	      0.93331679	     -6.83994817
      0.49383333	     -2.11570552	     -1.83548625	      5.36103629	     -0.69313136	      0.88291461	      0.30136608	     29.18251167	      5.32405458	     -4.76925852	    -20.77774099	      0.65981787	     -4.72472223	      3.37097493	    -11.57255145	     -1.34816358	     -1.27580088	    -24.71500489	     17.88037617	      5.91659338	     13.29882794	     -8.75363655	      1.06291452	     -6.64570479
      0.49800000	     -2.18320690	     -1.88761173	      5.37373534	     -0.68697939	      0.88224750	      0.30161912	     29.28571646	      5.47436669	     -4.64042576	    -21.55946236	      0.58481221	     -5.16000456	      3.44533128	    -11.04316759	     -1.51979607	     -1.32507143	    -26.42246122	     17.28143821	      5.96381153	     17.36336361	     -8.61555252	      1.18008294	     -6.48597244
      0.50216667	     -2.24615748	     -1.91504532	      5.33744156	     -0.68084853	      0.88158570	      0.30195004	     29.41932573	      5.61678651	     -4.46455416	    -22.45504933	      0.72791244	     -5.44714339	      3.44759618	    -10.48033029	     -1.66713851	     -1.45278903	    -28.20936980	     16.66782409	      6.12045771	     17.42915817	     -8.48818133	      1.25248106	     -6.31496355
      0.50633333	     -2.28900276	     -1.97718675	      5.31717380	     -0.67472510	      0.88101372	      0.30228693	     29.51761080	      5.78933744	     -4.31643226	    -23.33518300	      0.86550556	     -5.76554590	      3.44438974	     -9.87581828	     -1.87365047	     -1.59702132	    -30.08171276	     15.99704875	      6.32957662	     17.55034591	     -8.38430271	      1.37371641	     -6.11432992
      0.51050000	     -2.31492445	     -2.05328245	      5.28650246	     -0.66860882	      0.88050698	      0.30265000	     29.59716615	      5.98082058	     -4.17044554	    -24.23122411	      1.06305279	     -6.05614908	      3.43557466	     -9.24957788	     -2.10493299	     -1.75932734	    -32.00845037	     15.23165868	      6.53122322	     17.72572771	     -8.30293714	      1.51397754	     -5.89930567
      0.51466667	     -2.32246601	     -2.14508458	      5.24554419	     -0.66251618	      0.88005377	      0.30302802	     29.66200423	      6.18883885	     -4.03960975	    -25.15084467	      1.32181642	     -6.32619065	      3.40918535	     -8.60380270	     -2.36484714	     -1.94238531	    -33.98498567	     14.42125133	      6.74461659	     18.04190089	     -8.25146277	      1.70110618	     -5.65343901
